<?xml version="1.0" encoding="UTF-8" standalone="no"?>
<svg width="64" height="64" viewBox="0 0 64 64" xmlns="http://www.w3.org/2000/svg">
  <!-- Background -->
  <rect width="64" height="64" fill="#f5e6e8"/>
  
  <!-- Top black pixels -->
  <rect x="8" y="0" width="8" height="8" fill="#000"/>
  <rect x="16" y="0" width="8" height="8" fill="#000"/>
  <rect x="24" y="0" width="8" height="8" fill="#000"/>
  <rect x="32" y="0" width="8" height="8" fill="#000"/>
  <rect x="40" y="0" width="8" height="8" fill="#000"/>
  <rect x="48" y="0" width="8" height="8" fill="#000"/>
  
  <!-- Row 2 -->
  <rect x="0" y="8" width="8" height="8" fill="#000"/>
  <rect x="56" y="8" width="8" height="8" fill="#000"/>
  
  <!-- Row 3 (eyes area) -->
  <rect x="0" y="16" width="8" height="8" fill="#000"/>
  <rect x="16" y="16" width="8" height="8" fill="#000"/>
  <rect x="24" y="16" width="8" height="8" fill="#fff"/>
  <rect x="32" y="16" width="8" height="8" fill="#000"/>
  <rect x="40" y="16" width="8" height="8" fill="#fff"/>
  <rect x="48" y="16" width="8" height="8" fill="#000"/>
  <rect x="56" y="16" width="8" height="8" fill="#000"/>
  
  <!-- Row 4 (eyes) -->
  <rect x="0" y="24" width="8" height="8" fill="#000"/>
  <rect x="16" y="24" width="8" height="8" fill="#000"/>
  <rect x="24" y="24" width="8" height="8" fill="#000"/>
  <rect x="32" y="24" width="8" height="8" fill="#000"/>
  <rect x="40" y="24" width="8" height="8" fill="#000"/>
  <rect x="48" y="24" width="8" height="8" fill="#000"/>
  <rect x="56" y="24" width="8" height="8" fill="#000"/>
  
  <!-- Row 5 (mouth area) -->
  <rect x="0" y="32" width="8" height="8" fill="#000"/>
  <rect x="8" y="32" width="8" height="8" fill="#000"/>
  <rect x="16" y="32" width="8" height="8" fill="#000"/>
  <rect x="24" y="32" width="8" height="8" fill="#ff6b9d"/>
  <rect x="32" y="32" width="8" height="8" fill="#ff6b9d"/>
  <rect x="40" y="32" width="8" height="8" fill="#000"/>
  <rect x="48" y="32" width="8" height="8" fill="#000"/>
  <rect x="56" y="32" width="8" height="8" fill="#000"/>
  
  <!-- Row 6 -->
  <rect x="0" y="40" width="8" height="8" fill="#000"/>
  <rect x="8" y="40" width="8" height="8" fill="#a8d5d5"/>
  <rect x="16" y="40" width="8" height="8" fill="#a8d5d5"/>
  <rect x="24" y="40" width="8" height="8" fill="#ff6b9d"/>
  <rect x="32" y="40" width="8" height="8" fill="#ff6b9d"/>
  <rect x="40" y="40" width="8" height="8" fill="#a8d5d5"/>
  <rect x="48" y="40" width="8" height="8" fill="#a8d5d5"/>
  <rect x="56" y="40" width="8" height="8" fill="#000"/>
  
  <!-- Row 7 -->
  <rect x="0" y="48" width="8" height="8" fill="#000"/>
  <rect x="8" y="48" width="8" height="8" fill="#a8d5d5"/>
  <rect x="16" y="48" width="8" height="8" fill="#a8d5d5"/>
  <rect x="24" y="48" width="8" height="8" fill="#a8d5d5"/>
  <rect x="32" y="48" width="8" height="8" fill="#a8d5d5"/>
  <rect x="40" y="48" width="8" height="8" fill="#a8d5d5"/>
  <rect x="48" y="48" width="8" height="8" fill="#a8d5d5"/>
  <rect x="56" y="48" width="8" height="8" fill="#000"/>
  
  <!-- Row 8 -->
  <rect x="0" y="56" width="8" height="8" fill="#000"/>
  <rect x="8" y="56" width="8" height="8" fill="#000"/>
  <rect x="16" y="56" width="8" height="8" fill="#000"/>
  <rect x="24" y="56" width="8" height="8" fill="#000"/>
  <rect x="32" y="56" width="8" height="8" fill="#000"/>
  <rect x="40" y="56" width="8" height="8" fill="#000"/>
  <rect x="48" y="56" width="8" height="8" fill="#b8566f"/>
  <rect x="56" y="56" width="8" height="8" fill="#000"/>
</svg>